<mxfile host="app.diagrams.net" modified="2024-06-06T04:11:35.765Z" agent="Mozilla/5.0 (Windows NT 10.0; Win64; x64) AppleWebKit/537.36 (KHTML, like Gecko) Chrome/125.0.0.0 Safari/537.36" etag="rP_lnLQEEJhxuIaQeKSd" version="24.4.14" type="github">
  <diagram id="C5RBs43oDa-KdzZeNtuy" name="Page-1">
    <mxGraphModel dx="3088" dy="746" grid="1" gridSize="10" guides="1" tooltips="1" connect="1" arrows="1" fold="1" page="1" pageScale="1" pageWidth="827" pageHeight="1169" math="0" shadow="0">
      <root>
        <mxCell id="WIyWlLk6GJQsqaUBKTNV-0" />
        <mxCell id="WIyWlLk6GJQsqaUBKTNV-1" parent="WIyWlLk6GJQsqaUBKTNV-0" />
        <mxCell id="zkfFHV4jXpPFQw0GAbJ--0" value="Cliente" style="swimlane;fontStyle=2;align=center;verticalAlign=top;childLayout=stackLayout;horizontal=1;startSize=26;horizontalStack=0;resizeParent=1;resizeLast=0;collapsible=1;marginBottom=0;rounded=0;shadow=0;strokeWidth=1;" parent="WIyWlLk6GJQsqaUBKTNV-1" vertex="1">
          <mxGeometry x="-540" y="230" width="160" height="141" as="geometry">
            <mxRectangle x="230" y="140" width="160" height="26" as="alternateBounds" />
          </mxGeometry>
        </mxCell>
        <mxCell id="zkfFHV4jXpPFQw0GAbJ--1" value="+ clienteID" style="text;align=left;verticalAlign=top;spacingLeft=4;spacingRight=4;overflow=hidden;rotatable=0;points=[[0,0.5],[1,0.5]];portConstraint=eastwest;" parent="zkfFHV4jXpPFQw0GAbJ--0" vertex="1">
          <mxGeometry y="26" width="160" height="26" as="geometry" />
        </mxCell>
        <mxCell id="2kzh9lNKAqh6SULtEP6r-6" value="+ nome " style="text;align=left;verticalAlign=top;spacingLeft=4;spacingRight=4;overflow=hidden;rotatable=0;points=[[0,0.5],[1,0.5]];portConstraint=eastwest;" parent="zkfFHV4jXpPFQw0GAbJ--0" vertex="1">
          <mxGeometry y="52" width="160" height="26" as="geometry" />
        </mxCell>
        <mxCell id="r0VZcZ-JQpOF9B7DwPOQ-0" value="+ email " style="text;align=left;verticalAlign=top;spacingLeft=4;spacingRight=4;overflow=hidden;rotatable=0;points=[[0,0.5],[1,0.5]];portConstraint=eastwest;" parent="zkfFHV4jXpPFQw0GAbJ--0" vertex="1">
          <mxGeometry y="78" width="160" height="26" as="geometry" />
        </mxCell>
        <mxCell id="zkfFHV4jXpPFQw0GAbJ--4" value="" style="line;html=1;strokeWidth=1;align=left;verticalAlign=middle;spacingTop=-1;spacingLeft=3;spacingRight=3;rotatable=0;labelPosition=right;points=[];portConstraint=eastwest;" parent="zkfFHV4jXpPFQw0GAbJ--0" vertex="1">
          <mxGeometry y="104" width="160" height="16" as="geometry" />
        </mxCell>
        <mxCell id="2kzh9lNKAqh6SULtEP6r-7" value="&lt;&lt;Entity&gt;&gt;&#xa;ProdutoEstoque" style="swimlane;fontStyle=2;align=center;verticalAlign=top;childLayout=stackLayout;horizontal=1;startSize=45;horizontalStack=0;resizeParent=1;resizeLast=0;collapsible=1;marginBottom=0;rounded=0;shadow=0;strokeWidth=1;" parent="WIyWlLk6GJQsqaUBKTNV-1" vertex="1">
          <mxGeometry x="-540" y="585" width="160" height="219" as="geometry">
            <mxRectangle x="230" y="140" width="160" height="26" as="alternateBounds" />
          </mxGeometry>
        </mxCell>
        <mxCell id="2kzh9lNKAqh6SULtEP6r-8" value="+ produtoID" style="text;align=left;verticalAlign=top;spacingLeft=4;spacingRight=4;overflow=hidden;rotatable=0;points=[[0,0.5],[1,0.5]];portConstraint=eastwest;" parent="2kzh9lNKAqh6SULtEP6r-7" vertex="1">
          <mxGeometry y="45" width="160" height="26" as="geometry" />
        </mxCell>
        <mxCell id="SzbCQhYEouYxo2MltT4g-41" value="+ proprietarioID" style="text;align=left;verticalAlign=top;spacingLeft=4;spacingRight=4;overflow=hidden;rotatable=0;points=[[0,0.5],[1,0.5]];portConstraint=eastwest;" parent="2kzh9lNKAqh6SULtEP6r-7" vertex="1">
          <mxGeometry y="71" width="160" height="26" as="geometry" />
        </mxCell>
        <mxCell id="2kzh9lNKAqh6SULtEP6r-11" value="+ nome" style="text;align=left;verticalAlign=top;spacingLeft=4;spacingRight=4;overflow=hidden;rotatable=0;points=[[0,0.5],[1,0.5]];portConstraint=eastwest;" parent="2kzh9lNKAqh6SULtEP6r-7" vertex="1">
          <mxGeometry y="97" width="160" height="26" as="geometry" />
        </mxCell>
        <mxCell id="2kzh9lNKAqh6SULtEP6r-15" value="+ preço" style="text;align=left;verticalAlign=top;spacingLeft=4;spacingRight=4;overflow=hidden;rotatable=0;points=[[0,0.5],[1,0.5]];portConstraint=eastwest;" parent="2kzh9lNKAqh6SULtEP6r-7" vertex="1">
          <mxGeometry y="123" width="160" height="26" as="geometry" />
        </mxCell>
        <mxCell id="2kzh9lNKAqh6SULtEP6r-38" value="+ quantidade&#xa;" style="text;align=left;verticalAlign=top;spacingLeft=4;spacingRight=4;overflow=hidden;rotatable=0;points=[[0,0.5],[1,0.5]];portConstraint=eastwest;" parent="2kzh9lNKAqh6SULtEP6r-7" vertex="1">
          <mxGeometry y="149" width="160" height="26" as="geometry" />
        </mxCell>
        <mxCell id="2kzh9lNKAqh6SULtEP6r-10" value="" style="line;html=1;strokeWidth=1;align=left;verticalAlign=middle;spacingTop=-1;spacingLeft=3;spacingRight=3;rotatable=0;labelPosition=right;points=[];portConstraint=eastwest;" parent="2kzh9lNKAqh6SULtEP6r-7" vertex="1">
          <mxGeometry y="175" width="160" height="44" as="geometry" />
        </mxCell>
        <mxCell id="r0VZcZ-JQpOF9B7DwPOQ-10" value="Carrinho de Compras" style="swimlane;fontStyle=2;align=center;verticalAlign=top;childLayout=stackLayout;horizontal=1;startSize=26;horizontalStack=0;resizeParent=1;resizeLast=0;collapsible=1;marginBottom=0;rounded=0;shadow=0;strokeWidth=1;" parent="WIyWlLk6GJQsqaUBKTNV-1" vertex="1">
          <mxGeometry x="-155" y="30" width="160" height="122" as="geometry">
            <mxRectangle x="230" y="140" width="160" height="26" as="alternateBounds" />
          </mxGeometry>
        </mxCell>
        <mxCell id="r0VZcZ-JQpOF9B7DwPOQ-12" value="+ clienteID" style="text;align=left;verticalAlign=top;spacingLeft=4;spacingRight=4;overflow=hidden;rotatable=0;points=[[0,0.5],[1,0.5]];portConstraint=eastwest;" parent="r0VZcZ-JQpOF9B7DwPOQ-10" vertex="1">
          <mxGeometry y="26" width="160" height="26" as="geometry" />
        </mxCell>
        <mxCell id="r0VZcZ-JQpOF9B7DwPOQ-13" value="+ listaDeProdutos" style="text;align=left;verticalAlign=top;spacingLeft=4;spacingRight=4;overflow=hidden;rotatable=0;points=[[0,0.5],[1,0.5]];portConstraint=eastwest;" parent="r0VZcZ-JQpOF9B7DwPOQ-10" vertex="1">
          <mxGeometry y="52" width="160" height="26" as="geometry" />
        </mxCell>
        <mxCell id="r0VZcZ-JQpOF9B7DwPOQ-16" value="" style="line;html=1;strokeWidth=1;align=left;verticalAlign=middle;spacingTop=-1;spacingLeft=3;spacingRight=3;rotatable=0;labelPosition=right;points=[];portConstraint=eastwest;" parent="r0VZcZ-JQpOF9B7DwPOQ-10" vertex="1">
          <mxGeometry y="78" width="160" height="44" as="geometry" />
        </mxCell>
        <mxCell id="r0VZcZ-JQpOF9B7DwPOQ-17" value="Pedido" style="swimlane;fontStyle=2;align=center;verticalAlign=top;childLayout=stackLayout;horizontal=1;startSize=26;horizontalStack=0;resizeParent=1;resizeLast=0;collapsible=1;marginBottom=0;rounded=0;shadow=0;strokeWidth=1;" parent="WIyWlLk6GJQsqaUBKTNV-1" vertex="1">
          <mxGeometry x="-155" y="585" width="160" height="170" as="geometry">
            <mxRectangle x="230" y="140" width="160" height="26" as="alternateBounds" />
          </mxGeometry>
        </mxCell>
        <mxCell id="r0VZcZ-JQpOF9B7DwPOQ-18" value="+ pedidoID" style="text;align=left;verticalAlign=top;spacingLeft=4;spacingRight=4;overflow=hidden;rotatable=0;points=[[0,0.5],[1,0.5]];portConstraint=eastwest;" parent="r0VZcZ-JQpOF9B7DwPOQ-17" vertex="1">
          <mxGeometry y="26" width="160" height="26" as="geometry" />
        </mxCell>
        <mxCell id="r0VZcZ-JQpOF9B7DwPOQ-19" value="+ clienteID" style="text;align=left;verticalAlign=top;spacingLeft=4;spacingRight=4;overflow=hidden;rotatable=0;points=[[0,0.5],[1,0.5]];portConstraint=eastwest;" parent="r0VZcZ-JQpOF9B7DwPOQ-17" vertex="1">
          <mxGeometry y="52" width="160" height="26" as="geometry" />
        </mxCell>
        <mxCell id="r0VZcZ-JQpOF9B7DwPOQ-20" value="+ ListaDeProdutos" style="text;align=left;verticalAlign=top;spacingLeft=4;spacingRight=4;overflow=hidden;rotatable=0;points=[[0,0.5],[1,0.5]];portConstraint=eastwest;" parent="r0VZcZ-JQpOF9B7DwPOQ-17" vertex="1">
          <mxGeometry y="78" width="160" height="26" as="geometry" />
        </mxCell>
        <mxCell id="r0VZcZ-JQpOF9B7DwPOQ-23" value="+ data" style="text;align=left;verticalAlign=top;spacingLeft=4;spacingRight=4;overflow=hidden;rotatable=0;points=[[0,0.5],[1,0.5]];portConstraint=eastwest;" parent="r0VZcZ-JQpOF9B7DwPOQ-17" vertex="1">
          <mxGeometry y="104" width="160" height="26" as="geometry" />
        </mxCell>
        <mxCell id="r0VZcZ-JQpOF9B7DwPOQ-24" value="+ status" style="text;align=left;verticalAlign=top;spacingLeft=4;spacingRight=4;overflow=hidden;rotatable=0;points=[[0,0.5],[1,0.5]];portConstraint=eastwest;" parent="r0VZcZ-JQpOF9B7DwPOQ-17" vertex="1">
          <mxGeometry y="130" width="160" height="26" as="geometry" />
        </mxCell>
        <mxCell id="r0VZcZ-JQpOF9B7DwPOQ-21" value="" style="line;html=1;strokeWidth=1;align=left;verticalAlign=middle;spacingTop=-1;spacingLeft=3;spacingRight=3;rotatable=0;labelPosition=right;points=[];portConstraint=eastwest;" parent="r0VZcZ-JQpOF9B7DwPOQ-17" vertex="1">
          <mxGeometry y="156" width="160" height="14" as="geometry" />
        </mxCell>
        <mxCell id="r0VZcZ-JQpOF9B7DwPOQ-25" value="Pagamento" style="swimlane;fontStyle=2;align=center;verticalAlign=top;childLayout=stackLayout;horizontal=1;startSize=26;horizontalStack=0;resizeParent=1;resizeLast=0;collapsible=1;marginBottom=0;rounded=0;shadow=0;strokeWidth=1;" parent="WIyWlLk6GJQsqaUBKTNV-1" vertex="1">
          <mxGeometry x="200" y="208" width="160" height="180" as="geometry">
            <mxRectangle x="230" y="140" width="160" height="26" as="alternateBounds" />
          </mxGeometry>
        </mxCell>
        <mxCell id="r0VZcZ-JQpOF9B7DwPOQ-26" value="+ pagamentoID" style="text;align=left;verticalAlign=top;spacingLeft=4;spacingRight=4;overflow=hidden;rotatable=0;points=[[0,0.5],[1,0.5]];portConstraint=eastwest;" parent="r0VZcZ-JQpOF9B7DwPOQ-25" vertex="1">
          <mxGeometry y="26" width="160" height="26" as="geometry" />
        </mxCell>
        <mxCell id="r0VZcZ-JQpOF9B7DwPOQ-27" value="+ pedidoID" style="text;align=left;verticalAlign=top;spacingLeft=4;spacingRight=4;overflow=hidden;rotatable=0;points=[[0,0.5],[1,0.5]];portConstraint=eastwest;" parent="r0VZcZ-JQpOF9B7DwPOQ-25" vertex="1">
          <mxGeometry y="52" width="160" height="26" as="geometry" />
        </mxCell>
        <mxCell id="r0VZcZ-JQpOF9B7DwPOQ-28" value="+ status" style="text;align=left;verticalAlign=top;spacingLeft=4;spacingRight=4;overflow=hidden;rotatable=0;points=[[0,0.5],[1,0.5]];portConstraint=eastwest;" parent="r0VZcZ-JQpOF9B7DwPOQ-25" vertex="1">
          <mxGeometry y="78" width="160" height="24" as="geometry" />
        </mxCell>
        <mxCell id="r0VZcZ-JQpOF9B7DwPOQ-29" value="+ data" style="text;align=left;verticalAlign=top;spacingLeft=4;spacingRight=4;overflow=hidden;rotatable=0;points=[[0,0.5],[1,0.5]];portConstraint=eastwest;" parent="r0VZcZ-JQpOF9B7DwPOQ-25" vertex="1">
          <mxGeometry y="102" width="160" height="26" as="geometry" />
        </mxCell>
        <mxCell id="r0VZcZ-JQpOF9B7DwPOQ-33" value="+ valor" style="text;align=left;verticalAlign=top;spacingLeft=4;spacingRight=4;overflow=hidden;rotatable=0;points=[[0,0.5],[1,0.5]];portConstraint=eastwest;" parent="r0VZcZ-JQpOF9B7DwPOQ-25" vertex="1">
          <mxGeometry y="128" width="160" height="30" as="geometry" />
        </mxCell>
        <mxCell id="r0VZcZ-JQpOF9B7DwPOQ-31" value="" style="line;html=1;strokeWidth=1;align=left;verticalAlign=middle;spacingTop=-1;spacingLeft=3;spacingRight=3;rotatable=0;labelPosition=right;points=[];portConstraint=eastwest;" parent="r0VZcZ-JQpOF9B7DwPOQ-25" vertex="1">
          <mxGeometry y="158" width="160" height="10" as="geometry" />
        </mxCell>
        <mxCell id="r0VZcZ-JQpOF9B7DwPOQ-34" value="" style="edgeStyle=orthogonalEdgeStyle;rounded=0;orthogonalLoop=1;jettySize=auto;html=1;entryX=0.009;entryY=0.364;entryDx=0;entryDy=0;exitX=1.003;exitY=0.1;exitDx=0;exitDy=0;exitPerimeter=0;entryPerimeter=0;" parent="WIyWlLk6GJQsqaUBKTNV-1" source="2kzh9lNKAqh6SULtEP6r-6" target="r0VZcZ-JQpOF9B7DwPOQ-13" edge="1">
          <mxGeometry relative="1" as="geometry">
            <mxPoint x="-15" y="91" as="targetPoint" />
            <Array as="points">
              <mxPoint x="-379" y="290" />
              <mxPoint x="-250" y="290" />
              <mxPoint x="-250" y="90" />
              <mxPoint x="-155" y="90" />
              <mxPoint x="-155" y="92" />
            </Array>
          </mxGeometry>
        </mxCell>
        <mxCell id="r0VZcZ-JQpOF9B7DwPOQ-38" value="1" style="edgeLabel;html=1;align=center;verticalAlign=middle;resizable=0;points=[];spacing=2;fontSize=17;" parent="r0VZcZ-JQpOF9B7DwPOQ-34" vertex="1" connectable="0">
          <mxGeometry x="-0.6889" y="-3" relative="1" as="geometry">
            <mxPoint as="offset" />
          </mxGeometry>
        </mxCell>
        <mxCell id="r0VZcZ-JQpOF9B7DwPOQ-40" value="1" style="edgeLabel;html=1;align=center;verticalAlign=middle;resizable=0;points=[];spacing=2;fontSize=17;" parent="r0VZcZ-JQpOF9B7DwPOQ-34" vertex="1" connectable="0">
          <mxGeometry x="0.6444" y="-2" relative="1" as="geometry">
            <mxPoint as="offset" />
          </mxGeometry>
        </mxCell>
        <mxCell id="ZwTQn_33q0rgpb1d7WLj-62" value="Possui" style="edgeLabel;html=1;align=center;verticalAlign=middle;resizable=0;points=[];" parent="r0VZcZ-JQpOF9B7DwPOQ-34" connectable="0" vertex="1">
          <mxGeometry x="0.0215" y="2" relative="1" as="geometry">
            <mxPoint as="offset" />
          </mxGeometry>
        </mxCell>
        <mxCell id="r0VZcZ-JQpOF9B7DwPOQ-42" style="edgeStyle=orthogonalEdgeStyle;rounded=0;orthogonalLoop=1;jettySize=auto;html=1;entryX=0.5;entryY=0;entryDx=0;entryDy=0;exitX=0.5;exitY=1;exitDx=0;exitDy=0;" parent="WIyWlLk6GJQsqaUBKTNV-1" source="r0VZcZ-JQpOF9B7DwPOQ-10" target="A9HimfjuhqQ-msZeqpBk-2" edge="1">
          <mxGeometry relative="1" as="geometry" />
        </mxCell>
        <mxCell id="r0VZcZ-JQpOF9B7DwPOQ-43" value="1" style="edgeLabel;html=1;align=center;verticalAlign=middle;resizable=0;points=[];spacing=2;fontSize=17;" parent="r0VZcZ-JQpOF9B7DwPOQ-42" vertex="1" connectable="0">
          <mxGeometry x="-0.7476" relative="1" as="geometry">
            <mxPoint as="offset" />
          </mxGeometry>
        </mxCell>
        <mxCell id="r0VZcZ-JQpOF9B7DwPOQ-44" value="0..*" style="edgeLabel;html=1;align=center;verticalAlign=middle;resizable=0;points=[];fontSize=17;" parent="r0VZcZ-JQpOF9B7DwPOQ-42" vertex="1" connectable="0">
          <mxGeometry x="0.6618" y="-2" relative="1" as="geometry">
            <mxPoint x="2" y="-8" as="offset" />
          </mxGeometry>
        </mxCell>
        <mxCell id="ZwTQn_33q0rgpb1d7WLj-65" value="possui" style="edgeLabel;html=1;align=center;verticalAlign=middle;resizable=0;points=[];" parent="r0VZcZ-JQpOF9B7DwPOQ-42" connectable="0" vertex="1">
          <mxGeometry x="-0.1324" y="-3" relative="1" as="geometry">
            <mxPoint as="offset" />
          </mxGeometry>
        </mxCell>
        <mxCell id="r0VZcZ-JQpOF9B7DwPOQ-45" style="edgeStyle=orthogonalEdgeStyle;rounded=0;orthogonalLoop=1;jettySize=auto;html=1;entryX=-0.008;entryY=1.233;entryDx=0;entryDy=0;fontSize=17;entryPerimeter=0;" parent="WIyWlLk6GJQsqaUBKTNV-1" target="r0VZcZ-JQpOF9B7DwPOQ-19" edge="1">
          <mxGeometry relative="1" as="geometry">
            <mxPoint x="-380" y="349.0000000000001" as="sourcePoint" />
            <mxPoint x="-15" y="670" as="targetPoint" />
            <Array as="points">
              <mxPoint x="-380" y="320" />
              <mxPoint x="-250" y="320" />
              <mxPoint x="-250" y="669" />
            </Array>
          </mxGeometry>
        </mxCell>
        <mxCell id="r0VZcZ-JQpOF9B7DwPOQ-47" value="0..*&amp;nbsp;" style="edgeLabel;html=1;align=center;verticalAlign=middle;resizable=0;points=[];fontSize=17;" parent="r0VZcZ-JQpOF9B7DwPOQ-45" vertex="1" connectable="0">
          <mxGeometry x="-0.8645" y="-5" relative="1" as="geometry">
            <mxPoint x="8" y="6" as="offset" />
          </mxGeometry>
        </mxCell>
        <mxCell id="r0VZcZ-JQpOF9B7DwPOQ-48" value="1 n" style="edgeLabel;html=1;align=center;verticalAlign=middle;resizable=0;points=[];fontSize=17;" parent="r0VZcZ-JQpOF9B7DwPOQ-45" vertex="1" connectable="0">
          <mxGeometry x="0.8725" y="1" relative="1" as="geometry">
            <mxPoint x="-9" as="offset" />
          </mxGeometry>
        </mxCell>
        <mxCell id="ZwTQn_33q0rgpb1d7WLj-63" value="Realiza" style="edgeLabel;html=1;align=center;verticalAlign=middle;resizable=0;points=[];" parent="r0VZcZ-JQpOF9B7DwPOQ-45" connectable="0" vertex="1">
          <mxGeometry x="-0.1277" y="1" relative="1" as="geometry">
            <mxPoint y="-1" as="offset" />
          </mxGeometry>
        </mxCell>
        <mxCell id="r0VZcZ-JQpOF9B7DwPOQ-46" style="edgeStyle=orthogonalEdgeStyle;rounded=0;orthogonalLoop=1;jettySize=auto;html=1;exitX=0.5;exitY=0;exitDx=0;exitDy=0;entryX=0.5;entryY=1;entryDx=0;entryDy=0;" parent="WIyWlLk6GJQsqaUBKTNV-1" source="r0VZcZ-JQpOF9B7DwPOQ-17" target="A9HimfjuhqQ-msZeqpBk-2" edge="1">
          <mxGeometry relative="1" as="geometry">
            <mxPoint x="-70" y="454" as="targetPoint" />
          </mxGeometry>
        </mxCell>
        <mxCell id="r0VZcZ-JQpOF9B7DwPOQ-49" value="1..*" style="edgeLabel;html=1;align=center;verticalAlign=middle;resizable=0;points=[];fontSize=17;" parent="r0VZcZ-JQpOF9B7DwPOQ-46" vertex="1" connectable="0">
          <mxGeometry x="-0.9035" y="-1" relative="1" as="geometry">
            <mxPoint x="14" y="-15" as="offset" />
          </mxGeometry>
        </mxCell>
        <mxCell id="r0VZcZ-JQpOF9B7DwPOQ-50" value="0..*" style="edgeLabel;html=1;align=center;verticalAlign=middle;resizable=0;points=[];fontSize=17;" parent="r0VZcZ-JQpOF9B7DwPOQ-46" vertex="1" connectable="0">
          <mxGeometry x="0.8778" y="-1" relative="1" as="geometry">
            <mxPoint x="14" y="18" as="offset" />
          </mxGeometry>
        </mxCell>
        <mxCell id="ZwTQn_33q0rgpb1d7WLj-64" value="possui" style="edgeLabel;html=1;align=center;verticalAlign=middle;resizable=0;points=[];" parent="r0VZcZ-JQpOF9B7DwPOQ-46" connectable="0" vertex="1">
          <mxGeometry x="-0.0222" y="-2" relative="1" as="geometry">
            <mxPoint x="3" as="offset" />
          </mxGeometry>
        </mxCell>
        <mxCell id="ZwTQn_33q0rgpb1d7WLj-1" style="edgeStyle=orthogonalEdgeStyle;rounded=0;orthogonalLoop=1;jettySize=auto;html=1;entryX=0;entryY=0.5;entryDx=0;entryDy=0;" parent="WIyWlLk6GJQsqaUBKTNV-1" source="r0VZcZ-JQpOF9B7DwPOQ-13" target="r0VZcZ-JQpOF9B7DwPOQ-28" edge="1">
          <mxGeometry relative="1" as="geometry">
            <Array as="points">
              <mxPoint x="103" y="95" />
              <mxPoint x="103" y="290" />
              <mxPoint x="200" y="290" />
            </Array>
          </mxGeometry>
        </mxCell>
        <mxCell id="ZwTQn_33q0rgpb1d7WLj-2" value="1" style="edgeLabel;html=1;align=center;verticalAlign=middle;resizable=0;points=[];fontSize=17;" parent="ZwTQn_33q0rgpb1d7WLj-1" connectable="0" vertex="1">
          <mxGeometry x="-0.8917" relative="1" as="geometry">
            <mxPoint as="offset" />
          </mxGeometry>
        </mxCell>
        <mxCell id="ZwTQn_33q0rgpb1d7WLj-3" value="1" style="edgeLabel;html=1;align=center;verticalAlign=middle;resizable=0;points=[];fontSize=17;" parent="ZwTQn_33q0rgpb1d7WLj-1" connectable="0" vertex="1">
          <mxGeometry x="0.85" y="-2" relative="1" as="geometry">
            <mxPoint as="offset" />
          </mxGeometry>
        </mxCell>
        <mxCell id="ZwTQn_33q0rgpb1d7WLj-66" value="recebe" style="edgeLabel;html=1;align=center;verticalAlign=middle;resizable=0;points=[];" parent="ZwTQn_33q0rgpb1d7WLj-1" connectable="0" vertex="1">
          <mxGeometry x="-0.0833" y="-2" relative="1" as="geometry">
            <mxPoint as="offset" />
          </mxGeometry>
        </mxCell>
        <mxCell id="ZwTQn_33q0rgpb1d7WLj-6" style="edgeStyle=orthogonalEdgeStyle;rounded=0;orthogonalLoop=1;jettySize=auto;html=1;entryX=0;entryY=0.5;entryDx=0;entryDy=0;" parent="WIyWlLk6GJQsqaUBKTNV-1" source="r0VZcZ-JQpOF9B7DwPOQ-20" target="r0VZcZ-JQpOF9B7DwPOQ-29" edge="1">
          <mxGeometry relative="1" as="geometry">
            <Array as="points">
              <mxPoint x="103" y="676" />
              <mxPoint x="103" y="320" />
              <mxPoint x="200" y="320" />
            </Array>
          </mxGeometry>
        </mxCell>
        <mxCell id="ZwTQn_33q0rgpb1d7WLj-7" value="1" style="edgeLabel;html=1;align=center;verticalAlign=middle;resizable=0;points=[];fontSize=17;" parent="ZwTQn_33q0rgpb1d7WLj-6" connectable="0" vertex="1">
          <mxGeometry x="0.9278" y="2" relative="1" as="geometry">
            <mxPoint x="-9" as="offset" />
          </mxGeometry>
        </mxCell>
        <mxCell id="ZwTQn_33q0rgpb1d7WLj-8" value="1" style="edgeLabel;html=1;align=center;verticalAlign=middle;resizable=0;points=[];fontSize=17;" parent="ZwTQn_33q0rgpb1d7WLj-6" connectable="0" vertex="1">
          <mxGeometry x="-0.9567" y="2" relative="1" as="geometry">
            <mxPoint as="offset" />
          </mxGeometry>
        </mxCell>
        <mxCell id="ZwTQn_33q0rgpb1d7WLj-67" value="recebe" style="edgeLabel;html=1;align=center;verticalAlign=middle;resizable=0;points=[];" parent="ZwTQn_33q0rgpb1d7WLj-6" connectable="0" vertex="1">
          <mxGeometry x="0.3357" y="-3" relative="1" as="geometry">
            <mxPoint as="offset" />
          </mxGeometry>
        </mxCell>
        <mxCell id="SzbCQhYEouYxo2MltT4g-18" style="edgeStyle=orthogonalEdgeStyle;rounded=0;orthogonalLoop=1;jettySize=auto;html=1;exitX=0;exitY=0.5;exitDx=0;exitDy=0;entryX=1.006;entryY=0.436;entryDx=0;entryDy=0;entryPerimeter=0;" parent="WIyWlLk6GJQsqaUBKTNV-1" source="ZwTQn_33q0rgpb1d7WLj-21" target="SzbCQhYEouYxo2MltT4g-38" edge="1">
          <mxGeometry relative="1" as="geometry">
            <mxPoint x="-150" y="949" as="sourcePoint" />
            <mxPoint x="-320" y="930" as="targetPoint" />
            <Array as="points" />
          </mxGeometry>
        </mxCell>
        <mxCell id="SzbCQhYEouYxo2MltT4g-19" value="contém" style="edgeLabel;html=1;align=center;verticalAlign=middle;resizable=0;points=[];" parent="SzbCQhYEouYxo2MltT4g-18" vertex="1" connectable="0">
          <mxGeometry x="0.0599" relative="1" as="geometry">
            <mxPoint y="11" as="offset" />
          </mxGeometry>
        </mxCell>
        <mxCell id="SzbCQhYEouYxo2MltT4g-20" value="1" style="edgeLabel;html=1;align=center;verticalAlign=middle;resizable=0;points=[];" parent="SzbCQhYEouYxo2MltT4g-18" vertex="1" connectable="0">
          <mxGeometry x="-0.952" y="-3" relative="1" as="geometry">
            <mxPoint x="-12" y="14" as="offset" />
          </mxGeometry>
        </mxCell>
        <mxCell id="SzbCQhYEouYxo2MltT4g-21" value="0..*" style="edgeLabel;html=1;align=center;verticalAlign=middle;resizable=0;points=[];" parent="SzbCQhYEouYxo2MltT4g-18" vertex="1" connectable="0">
          <mxGeometry x="0.914" y="2" relative="1" as="geometry">
            <mxPoint x="2" y="11" as="offset" />
          </mxGeometry>
        </mxCell>
        <mxCell id="ZwTQn_33q0rgpb1d7WLj-18" value="Loja" style="swimlane;fontStyle=2;align=center;verticalAlign=top;childLayout=stackLayout;horizontal=1;startSize=26;horizontalStack=0;resizeParent=1;resizeLast=0;collapsible=1;marginBottom=0;rounded=0;shadow=0;strokeWidth=1;" parent="WIyWlLk6GJQsqaUBKTNV-1" vertex="1">
          <mxGeometry x="-155" y="882" width="160" height="142" as="geometry">
            <mxRectangle x="230" y="140" width="160" height="26" as="alternateBounds" />
          </mxGeometry>
        </mxCell>
        <mxCell id="ZwTQn_33q0rgpb1d7WLj-19" value="+ lojaID" style="text;align=left;verticalAlign=top;spacingLeft=4;spacingRight=4;overflow=hidden;rotatable=0;points=[[0,0.5],[1,0.5]];portConstraint=eastwest;" parent="ZwTQn_33q0rgpb1d7WLj-18" vertex="1">
          <mxGeometry y="26" width="160" height="26" as="geometry" />
        </mxCell>
        <mxCell id="ZwTQn_33q0rgpb1d7WLj-20" value="+ nome" style="text;align=left;verticalAlign=top;spacingLeft=4;spacingRight=4;overflow=hidden;rotatable=0;points=[[0,0.5],[1,0.5]];portConstraint=eastwest;" parent="ZwTQn_33q0rgpb1d7WLj-18" vertex="1">
          <mxGeometry y="52" width="160" height="26" as="geometry" />
        </mxCell>
        <mxCell id="ZwTQn_33q0rgpb1d7WLj-21" value="&lt;span style=&quot;text-wrap: nowrap;&quot;&gt;+&amp;nbsp;&lt;/span&gt;listaDePedidos" style="text;whiteSpace=wrap;html=1;" parent="ZwTQn_33q0rgpb1d7WLj-18" vertex="1">
          <mxGeometry y="78" width="160" height="22" as="geometry" />
        </mxCell>
        <mxCell id="ZwTQn_33q0rgpb1d7WLj-22" value="&lt;span style=&quot;color: rgb(0, 0, 0); font-family: Helvetica; font-size: 12px; font-style: normal; font-variant-ligatures: normal; font-variant-caps: normal; font-weight: 400; letter-spacing: normal; orphans: 2; text-align: left; text-indent: 0px; text-transform: none; widows: 2; word-spacing: 0px; -webkit-text-stroke-width: 0px; white-space: nowrap; background-color: rgb(251, 251, 251); text-decoration-thickness: initial; text-decoration-style: initial; text-decoration-color: initial; display: inline !important; float: none;&quot;&gt;&lt;span&gt;+&amp;nbsp;&lt;/span&gt;proprietarioID&lt;/span&gt;" style="text;whiteSpace=wrap;html=1;" parent="ZwTQn_33q0rgpb1d7WLj-18" vertex="1">
          <mxGeometry y="100" width="160" height="22" as="geometry" />
        </mxCell>
        <mxCell id="ZwTQn_33q0rgpb1d7WLj-25" value="" style="line;html=1;strokeWidth=1;align=left;verticalAlign=middle;spacingTop=-1;spacingLeft=3;spacingRight=3;rotatable=0;labelPosition=right;points=[];portConstraint=eastwest;" parent="ZwTQn_33q0rgpb1d7WLj-18" vertex="1">
          <mxGeometry y="122" width="160" height="20" as="geometry" />
        </mxCell>
        <mxCell id="ZwTQn_33q0rgpb1d7WLj-33" value="Extrato de Venda" style="swimlane;fontStyle=2;align=center;verticalAlign=top;childLayout=stackLayout;horizontal=1;startSize=26;horizontalStack=0;resizeParent=1;resizeLast=0;collapsible=1;marginBottom=0;rounded=0;shadow=0;strokeWidth=1;" parent="WIyWlLk6GJQsqaUBKTNV-1" vertex="1">
          <mxGeometry x="230" y="882" width="160" height="142" as="geometry">
            <mxRectangle x="230" y="140" width="160" height="26" as="alternateBounds" />
          </mxGeometry>
        </mxCell>
        <mxCell id="ZwTQn_33q0rgpb1d7WLj-34" value="+ extratoID" style="text;align=left;verticalAlign=top;spacingLeft=4;spacingRight=4;overflow=hidden;rotatable=0;points=[[0,0.5],[1,0.5]];portConstraint=eastwest;" parent="ZwTQn_33q0rgpb1d7WLj-33" vertex="1">
          <mxGeometry y="26" width="160" height="26" as="geometry" />
        </mxCell>
        <mxCell id="ZwTQn_33q0rgpb1d7WLj-38" value="+ dataInicio" style="text;align=left;verticalAlign=top;spacingLeft=4;spacingRight=4;overflow=hidden;rotatable=0;points=[[0,0.5],[1,0.5]];portConstraint=eastwest;" parent="ZwTQn_33q0rgpb1d7WLj-33" vertex="1">
          <mxGeometry y="52" width="160" height="26" as="geometry" />
        </mxCell>
        <mxCell id="ZwTQn_33q0rgpb1d7WLj-39" value="&lt;span style=&quot;text-wrap: nowrap;&quot;&gt;+&amp;nbsp;&lt;/span&gt;dataFim" style="text;whiteSpace=wrap;html=1;" parent="ZwTQn_33q0rgpb1d7WLj-33" vertex="1">
          <mxGeometry y="78" width="160" height="22" as="geometry" />
        </mxCell>
        <mxCell id="ZwTQn_33q0rgpb1d7WLj-40" value="&lt;span style=&quot;color: rgb(0, 0, 0); font-family: Helvetica; font-size: 12px; font-style: normal; font-variant-ligatures: normal; font-variant-caps: normal; font-weight: 400; letter-spacing: normal; orphans: 2; text-align: left; text-indent: 0px; text-transform: none; widows: 2; word-spacing: 0px; -webkit-text-stroke-width: 0px; white-space: nowrap; background-color: rgb(251, 251, 251); text-decoration-thickness: initial; text-decoration-style: initial; text-decoration-color: initial; display: inline !important; float: none;&quot;&gt;&lt;span&gt;+&amp;nbsp;&lt;/span&gt;listaDePedidos&lt;/span&gt;" style="text;whiteSpace=wrap;html=1;" parent="ZwTQn_33q0rgpb1d7WLj-33" vertex="1">
          <mxGeometry y="100" width="160" height="22" as="geometry" />
        </mxCell>
        <mxCell id="ZwTQn_33q0rgpb1d7WLj-41" value="" style="line;html=1;strokeWidth=1;align=left;verticalAlign=middle;spacingTop=-1;spacingLeft=3;spacingRight=3;rotatable=0;labelPosition=right;points=[];portConstraint=eastwest;" parent="ZwTQn_33q0rgpb1d7WLj-33" vertex="1">
          <mxGeometry y="122" width="160" height="20" as="geometry" />
        </mxCell>
        <mxCell id="ZwTQn_33q0rgpb1d7WLj-29" style="edgeStyle=orthogonalEdgeStyle;rounded=0;orthogonalLoop=1;jettySize=auto;html=1;exitX=1;exitY=0.25;exitDx=0;exitDy=0;entryX=0;entryY=0.25;entryDx=0;entryDy=0;" parent="WIyWlLk6GJQsqaUBKTNV-1" source="ZwTQn_33q0rgpb1d7WLj-21" target="ZwTQn_33q0rgpb1d7WLj-39" edge="1">
          <mxGeometry relative="1" as="geometry">
            <mxPoint x="230" y="960" as="targetPoint" />
          </mxGeometry>
        </mxCell>
        <mxCell id="ZwTQn_33q0rgpb1d7WLj-30" value="1" style="edgeLabel;html=1;align=center;verticalAlign=middle;resizable=0;points=[];fontSize=17;" parent="ZwTQn_33q0rgpb1d7WLj-29" connectable="0" vertex="1">
          <mxGeometry x="-0.7367" y="-1" relative="1" as="geometry">
            <mxPoint y="16" as="offset" />
          </mxGeometry>
        </mxCell>
        <mxCell id="ZwTQn_33q0rgpb1d7WLj-31" value="0..*" style="edgeLabel;html=1;align=center;verticalAlign=middle;resizable=0;points=[];fontSize=17;" parent="ZwTQn_33q0rgpb1d7WLj-29" connectable="0" vertex="1">
          <mxGeometry x="0.4798" y="2" relative="1" as="geometry">
            <mxPoint x="27" y="19" as="offset" />
          </mxGeometry>
        </mxCell>
        <mxCell id="ZwTQn_33q0rgpb1d7WLj-70" value="visualiza" style="edgeLabel;html=1;align=center;verticalAlign=middle;resizable=0;points=[];" parent="ZwTQn_33q0rgpb1d7WLj-29" connectable="0" vertex="1">
          <mxGeometry x="-0.0816" y="-2" relative="1" as="geometry">
            <mxPoint y="12" as="offset" />
          </mxGeometry>
        </mxCell>
        <mxCell id="A9HimfjuhqQ-msZeqpBk-2" value="ProdutoItem" style="swimlane;fontStyle=2;align=center;verticalAlign=top;childLayout=stackLayout;horizontal=1;startSize=26;horizontalStack=0;resizeParent=1;resizeLast=0;collapsible=1;marginBottom=0;rounded=0;shadow=0;strokeWidth=1;" parent="WIyWlLk6GJQsqaUBKTNV-1" vertex="1">
          <mxGeometry x="-170" y="280" width="190" height="174" as="geometry">
            <mxRectangle x="230" y="140" width="160" height="26" as="alternateBounds" />
          </mxGeometry>
        </mxCell>
        <mxCell id="A9HimfjuhqQ-msZeqpBk-3" value="+ produtoID" style="text;align=left;verticalAlign=top;spacingLeft=4;spacingRight=4;overflow=hidden;rotatable=0;points=[[0,0.5],[1,0.5]];portConstraint=eastwest;" parent="A9HimfjuhqQ-msZeqpBk-2" vertex="1">
          <mxGeometry y="26" width="190" height="26" as="geometry" />
        </mxCell>
        <mxCell id="A9HimfjuhqQ-msZeqpBk-4" value="+ nome" style="text;align=left;verticalAlign=top;spacingLeft=4;spacingRight=4;overflow=hidden;rotatable=0;points=[[0,0.5],[1,0.5]];portConstraint=eastwest;" parent="A9HimfjuhqQ-msZeqpBk-2" vertex="1">
          <mxGeometry y="52" width="190" height="26" as="geometry" />
        </mxCell>
        <mxCell id="A9HimfjuhqQ-msZeqpBk-5" value="+ preco" style="text;align=left;verticalAlign=top;spacingLeft=4;spacingRight=4;overflow=hidden;rotatable=0;points=[[0,0.5],[1,0.5]];portConstraint=eastwest;" parent="A9HimfjuhqQ-msZeqpBk-2" vertex="1">
          <mxGeometry y="78" width="190" height="26" as="geometry" />
        </mxCell>
        <mxCell id="A9HimfjuhqQ-msZeqpBk-6" value="+ quantidade" style="text;align=left;verticalAlign=top;spacingLeft=4;spacingRight=4;overflow=hidden;rotatable=0;points=[[0,0.5],[1,0.5]];portConstraint=eastwest;" parent="A9HimfjuhqQ-msZeqpBk-2" vertex="1">
          <mxGeometry y="104" width="190" height="26" as="geometry" />
        </mxCell>
        <mxCell id="A9HimfjuhqQ-msZeqpBk-7" value="" style="line;html=1;strokeWidth=1;align=left;verticalAlign=middle;spacingTop=-1;spacingLeft=3;spacingRight=3;rotatable=0;labelPosition=right;points=[];portConstraint=eastwest;" parent="A9HimfjuhqQ-msZeqpBk-2" vertex="1">
          <mxGeometry y="130" width="190" height="44" as="geometry" />
        </mxCell>
        <mxCell id="SzbCQhYEouYxo2MltT4g-3" style="edgeStyle=orthogonalEdgeStyle;rounded=0;orthogonalLoop=1;jettySize=auto;html=1;exitX=0.497;exitY=-0.052;exitDx=0;exitDy=0;exitPerimeter=0;" parent="WIyWlLk6GJQsqaUBKTNV-1" target="2kzh9lNKAqh6SULtEP6r-7" edge="1">
          <mxGeometry relative="1" as="geometry">
            <mxPoint x="-460.12" y="369.43999999999994" as="sourcePoint" />
            <mxPoint x="-480" y="622" as="targetPoint" />
          </mxGeometry>
        </mxCell>
        <mxCell id="SzbCQhYEouYxo2MltT4g-4" value="Consulta" style="edgeLabel;html=1;align=center;verticalAlign=middle;resizable=0;points=[];" parent="SzbCQhYEouYxo2MltT4g-3" vertex="1" connectable="0">
          <mxGeometry x="-0.205" y="1" relative="1" as="geometry">
            <mxPoint x="16" y="13" as="offset" />
          </mxGeometry>
        </mxCell>
        <mxCell id="SzbCQhYEouYxo2MltT4g-6" value="1" style="edgeLabel;html=1;align=center;verticalAlign=middle;resizable=0;points=[];" parent="SzbCQhYEouYxo2MltT4g-3" vertex="1" connectable="0">
          <mxGeometry x="0.7426" y="-1" relative="1" as="geometry">
            <mxPoint x="11" y="11" as="offset" />
          </mxGeometry>
        </mxCell>
        <mxCell id="SzbCQhYEouYxo2MltT4g-42" value="1..*" style="edgeLabel;html=1;align=center;verticalAlign=middle;resizable=0;points=[];" parent="SzbCQhYEouYxo2MltT4g-3" vertex="1" connectable="0">
          <mxGeometry x="-0.9211" y="1" relative="1" as="geometry">
            <mxPoint x="9" as="offset" />
          </mxGeometry>
        </mxCell>
        <mxCell id="SzbCQhYEouYxo2MltT4g-7" style="edgeStyle=orthogonalEdgeStyle;rounded=0;orthogonalLoop=1;jettySize=auto;html=1;" parent="WIyWlLk6GJQsqaUBKTNV-1" source="r0VZcZ-JQpOF9B7DwPOQ-17" edge="1">
          <mxGeometry relative="1" as="geometry">
            <mxPoint x="-76" y="877" as="targetPoint" />
          </mxGeometry>
        </mxCell>
        <mxCell id="SzbCQhYEouYxo2MltT4g-8" value="recebe" style="edgeLabel;html=1;align=center;verticalAlign=middle;resizable=0;points=[];" parent="SzbCQhYEouYxo2MltT4g-7" vertex="1" connectable="0">
          <mxGeometry x="-0.0489" y="4" relative="1" as="geometry">
            <mxPoint as="offset" />
          </mxGeometry>
        </mxCell>
        <mxCell id="SzbCQhYEouYxo2MltT4g-9" value="0..*" style="edgeLabel;html=1;align=center;verticalAlign=middle;resizable=0;points=[];" parent="SzbCQhYEouYxo2MltT4g-7" vertex="1" connectable="0">
          <mxGeometry x="-0.9049" y="1" relative="1" as="geometry">
            <mxPoint x="14" y="9" as="offset" />
          </mxGeometry>
        </mxCell>
        <mxCell id="SzbCQhYEouYxo2MltT4g-10" value="1" style="edgeLabel;html=1;align=center;verticalAlign=middle;resizable=0;points=[];" parent="SzbCQhYEouYxo2MltT4g-7" vertex="1" connectable="0">
          <mxGeometry x="0.8496" y="2" relative="1" as="geometry">
            <mxPoint x="4" y="-8" as="offset" />
          </mxGeometry>
        </mxCell>
        <mxCell id="kopMiZppOzMJJGPz693z-0" style="edgeStyle=orthogonalEdgeStyle;rounded=0;orthogonalLoop=1;jettySize=auto;html=1;entryX=0.5;entryY=1;entryDx=0;entryDy=0;" parent="WIyWlLk6GJQsqaUBKTNV-1" source="SzbCQhYEouYxo2MltT4g-35" target="2kzh9lNKAqh6SULtEP6r-7" edge="1">
          <mxGeometry relative="1" as="geometry" />
        </mxCell>
        <mxCell id="kopMiZppOzMJJGPz693z-1" value="1" style="edgeLabel;html=1;align=center;verticalAlign=middle;resizable=0;points=[];" parent="kopMiZppOzMJJGPz693z-0" vertex="1" connectable="0">
          <mxGeometry x="-0.7457" y="1" relative="1" as="geometry">
            <mxPoint x="11" as="offset" />
          </mxGeometry>
        </mxCell>
        <mxCell id="kopMiZppOzMJJGPz693z-2" value="0..*" style="edgeLabel;html=1;align=center;verticalAlign=middle;resizable=0;points=[];" parent="kopMiZppOzMJJGPz693z-0" vertex="1" connectable="0">
          <mxGeometry x="0.646" y="2" relative="1" as="geometry">
            <mxPoint x="12" as="offset" />
          </mxGeometry>
        </mxCell>
        <mxCell id="gnOAgwDVRLhuEPHU9V2e-7" style="edgeStyle=orthogonalEdgeStyle;rounded=0;orthogonalLoop=1;jettySize=auto;html=1;exitX=0;exitY=0.954;exitDx=0;exitDy=0;exitPerimeter=0;" edge="1" parent="WIyWlLk6GJQsqaUBKTNV-1" source="SzbCQhYEouYxo2MltT4g-37" target="gnOAgwDVRLhuEPHU9V2e-5">
          <mxGeometry relative="1" as="geometry" />
        </mxCell>
        <mxCell id="gnOAgwDVRLhuEPHU9V2e-8" value="1" style="edgeLabel;html=1;align=center;verticalAlign=middle;resizable=0;points=[];" vertex="1" connectable="0" parent="gnOAgwDVRLhuEPHU9V2e-7">
          <mxGeometry x="-0.6241" y="2" relative="1" as="geometry">
            <mxPoint y="-11" as="offset" />
          </mxGeometry>
        </mxCell>
        <mxCell id="gnOAgwDVRLhuEPHU9V2e-9" value="1" style="edgeLabel;html=1;align=center;verticalAlign=middle;resizable=0;points=[];" vertex="1" connectable="0" parent="gnOAgwDVRLhuEPHU9V2e-7">
          <mxGeometry x="0.6085" y="1" relative="1" as="geometry">
            <mxPoint y="-9" as="offset" />
          </mxGeometry>
        </mxCell>
        <mxCell id="SzbCQhYEouYxo2MltT4g-35" value="Proprietário" style="swimlane;fontStyle=2;align=center;verticalAlign=top;childLayout=stackLayout;horizontal=1;startSize=26;horizontalStack=0;resizeParent=1;resizeLast=0;collapsible=1;marginBottom=0;rounded=0;shadow=0;strokeWidth=1;" parent="WIyWlLk6GJQsqaUBKTNV-1" vertex="1">
          <mxGeometry x="-540" y="882" width="160" height="146" as="geometry">
            <mxRectangle x="230" y="140" width="160" height="26" as="alternateBounds" />
          </mxGeometry>
        </mxCell>
        <mxCell id="SzbCQhYEouYxo2MltT4g-36" value="+ proprietarioID" style="text;align=left;verticalAlign=top;spacingLeft=4;spacingRight=4;overflow=hidden;rotatable=0;points=[[0,0.5],[1,0.5]];portConstraint=eastwest;" parent="SzbCQhYEouYxo2MltT4g-35" vertex="1">
          <mxGeometry y="26" width="160" height="26" as="geometry" />
        </mxCell>
        <mxCell id="SzbCQhYEouYxo2MltT4g-37" value="+ nome " style="text;align=left;verticalAlign=top;spacingLeft=4;spacingRight=4;overflow=hidden;rotatable=0;points=[[0,0.5],[1,0.5]];portConstraint=eastwest;" parent="SzbCQhYEouYxo2MltT4g-35" vertex="1">
          <mxGeometry y="52" width="160" height="26" as="geometry" />
        </mxCell>
        <mxCell id="SzbCQhYEouYxo2MltT4g-38" value="+ email " style="text;align=left;verticalAlign=top;spacingLeft=4;spacingRight=4;overflow=hidden;rotatable=0;points=[[0,0.5],[1,0.5]];portConstraint=eastwest;" parent="SzbCQhYEouYxo2MltT4g-35" vertex="1">
          <mxGeometry y="78" width="160" height="26" as="geometry" />
        </mxCell>
        <mxCell id="SzbCQhYEouYxo2MltT4g-39" value="" style="line;html=1;strokeWidth=1;align=left;verticalAlign=middle;spacingTop=-1;spacingLeft=3;spacingRight=3;rotatable=0;labelPosition=right;points=[];portConstraint=eastwest;" parent="SzbCQhYEouYxo2MltT4g-35" vertex="1">
          <mxGeometry y="104" width="160" height="16" as="geometry" />
        </mxCell>
        <mxCell id="SaPUFqvF2L6aPEKvpbEH-13" style="edgeStyle=orthogonalEdgeStyle;rounded=0;orthogonalLoop=1;jettySize=auto;html=1;entryX=0.5;entryY=1;entryDx=0;entryDy=0;" parent="WIyWlLk6GJQsqaUBKTNV-1" source="SaPUFqvF2L6aPEKvpbEH-0" target="SaPUFqvF2L6aPEKvpbEH-11" edge="1">
          <mxGeometry relative="1" as="geometry" />
        </mxCell>
        <mxCell id="SaPUFqvF2L6aPEKvpbEH-14" value="1" style="edgeLabel;html=1;align=center;verticalAlign=middle;resizable=0;points=[];" parent="SaPUFqvF2L6aPEKvpbEH-13" vertex="1" connectable="0">
          <mxGeometry x="-0.6338" y="1" relative="1" as="geometry">
            <mxPoint x="11" as="offset" />
          </mxGeometry>
        </mxCell>
        <mxCell id="SaPUFqvF2L6aPEKvpbEH-15" value="1" style="edgeLabel;html=1;align=center;verticalAlign=middle;resizable=0;points=[];" parent="SaPUFqvF2L6aPEKvpbEH-13" vertex="1" connectable="0">
          <mxGeometry x="0.2958" y="1" relative="1" as="geometry">
            <mxPoint x="11" y="-14" as="offset" />
          </mxGeometry>
        </mxCell>
        <mxCell id="SaPUFqvF2L6aPEKvpbEH-0" value="&lt;&lt;Control&gt;&gt; &#xa;ProdutoControl" style="swimlane;fontStyle=2;align=center;verticalAlign=top;childLayout=stackLayout;horizontal=1;startSize=45;horizontalStack=0;resizeParent=1;resizeLast=0;collapsible=1;marginBottom=0;rounded=0;shadow=0;strokeWidth=1;" parent="WIyWlLk6GJQsqaUBKTNV-1" vertex="1">
          <mxGeometry x="-760" y="630" width="160" height="89" as="geometry">
            <mxRectangle x="230" y="140" width="160" height="26" as="alternateBounds" />
          </mxGeometry>
        </mxCell>
        <mxCell id="SaPUFqvF2L6aPEKvpbEH-6" value="" style="line;html=1;strokeWidth=1;align=left;verticalAlign=middle;spacingTop=-1;spacingLeft=3;spacingRight=3;rotatable=0;labelPosition=right;points=[];portConstraint=eastwest;" parent="SaPUFqvF2L6aPEKvpbEH-0" vertex="1">
          <mxGeometry y="45" width="160" height="44" as="geometry" />
        </mxCell>
        <mxCell id="SaPUFqvF2L6aPEKvpbEH-8" style="edgeStyle=orthogonalEdgeStyle;rounded=0;orthogonalLoop=1;jettySize=auto;html=1;" parent="WIyWlLk6GJQsqaUBKTNV-1" edge="1">
          <mxGeometry relative="1" as="geometry">
            <mxPoint x="-540" y="680" as="sourcePoint" />
            <mxPoint x="-600" y="680" as="targetPoint" />
            <Array as="points">
              <mxPoint x="-540" y="680" />
              <mxPoint x="-600" y="680" />
            </Array>
          </mxGeometry>
        </mxCell>
        <mxCell id="SaPUFqvF2L6aPEKvpbEH-9" value="1" style="edgeLabel;html=1;align=center;verticalAlign=middle;resizable=0;points=[];" parent="SaPUFqvF2L6aPEKvpbEH-8" vertex="1" connectable="0">
          <mxGeometry x="-0.7" relative="1" as="geometry">
            <mxPoint y="-10" as="offset" />
          </mxGeometry>
        </mxCell>
        <mxCell id="SaPUFqvF2L6aPEKvpbEH-10" value="1" style="edgeLabel;html=1;align=center;verticalAlign=middle;resizable=0;points=[];" parent="SaPUFqvF2L6aPEKvpbEH-8" vertex="1" connectable="0">
          <mxGeometry x="0.5133" y="-1" relative="1" as="geometry">
            <mxPoint y="-9" as="offset" />
          </mxGeometry>
        </mxCell>
        <mxCell id="SaPUFqvF2L6aPEKvpbEH-11" value="&lt;&lt;Boundary&gt;&gt; &#xa;PaginaListagemDeProdutoEstoque" style="swimlane;fontStyle=2;align=center;verticalAlign=top;childLayout=stackLayout;horizontal=1;startSize=45;horizontalStack=0;resizeParent=1;resizeLast=0;collapsible=1;marginBottom=0;rounded=0;shadow=0;strokeWidth=1;" parent="WIyWlLk6GJQsqaUBKTNV-1" vertex="1">
          <mxGeometry x="-775" y="470" width="190" height="89" as="geometry">
            <mxRectangle x="230" y="140" width="160" height="26" as="alternateBounds" />
          </mxGeometry>
        </mxCell>
        <mxCell id="SaPUFqvF2L6aPEKvpbEH-12" value="" style="line;html=1;strokeWidth=1;align=left;verticalAlign=middle;spacingTop=-1;spacingLeft=3;spacingRight=3;rotatable=0;labelPosition=right;points=[];portConstraint=eastwest;" parent="SaPUFqvF2L6aPEKvpbEH-11" vertex="1">
          <mxGeometry y="45" width="190" height="44" as="geometry" />
        </mxCell>
        <mxCell id="SaPUFqvF2L6aPEKvpbEH-16" value="&lt;&lt; Boundary &gt;&gt;&#xa;PaginaEntrar" style="swimlane;fontStyle=2;align=center;verticalAlign=top;childLayout=stackLayout;horizontal=1;startSize=50;horizontalStack=0;resizeParent=1;resizeLast=0;collapsible=1;marginBottom=0;rounded=0;shadow=0;strokeWidth=1;" parent="WIyWlLk6GJQsqaUBKTNV-1" vertex="1">
          <mxGeometry x="-960" y="560" width="160" height="70" as="geometry">
            <mxRectangle x="230" y="140" width="160" height="26" as="alternateBounds" />
          </mxGeometry>
        </mxCell>
        <mxCell id="SaPUFqvF2L6aPEKvpbEH-20" value="" style="line;html=1;strokeWidth=1;align=left;verticalAlign=middle;spacingTop=-1;spacingLeft=3;spacingRight=3;rotatable=0;labelPosition=right;points=[];portConstraint=eastwest;" parent="SaPUFqvF2L6aPEKvpbEH-16" vertex="1">
          <mxGeometry y="50" width="160" height="16" as="geometry" />
        </mxCell>
        <mxCell id="SaPUFqvF2L6aPEKvpbEH-21" style="edgeStyle=orthogonalEdgeStyle;rounded=0;orthogonalLoop=1;jettySize=auto;html=1;" parent="WIyWlLk6GJQsqaUBKTNV-1" source="zkfFHV4jXpPFQw0GAbJ--0" target="SaPUFqvF2L6aPEKvpbEH-25" edge="1">
          <mxGeometry relative="1" as="geometry">
            <mxPoint x="-610" y="310" as="targetPoint" />
            <Array as="points">
              <mxPoint x="-560" y="320" />
              <mxPoint x="-560" y="320" />
            </Array>
          </mxGeometry>
        </mxCell>
        <mxCell id="SaPUFqvF2L6aPEKvpbEH-22" value="1" style="edgeLabel;html=1;align=center;verticalAlign=middle;resizable=0;points=[];" parent="SaPUFqvF2L6aPEKvpbEH-21" vertex="1" connectable="0">
          <mxGeometry x="-0.7896" y="-3" relative="1" as="geometry">
            <mxPoint x="-61" y="-7" as="offset" />
          </mxGeometry>
        </mxCell>
        <mxCell id="SaPUFqvF2L6aPEKvpbEH-23" value="1" style="edgeLabel;html=1;align=center;verticalAlign=middle;resizable=0;points=[];" parent="SaPUFqvF2L6aPEKvpbEH-21" vertex="1" connectable="0">
          <mxGeometry x="-0.6955" y="-3" relative="1" as="geometry">
            <mxPoint y="-7" as="offset" />
          </mxGeometry>
        </mxCell>
        <mxCell id="SaPUFqvF2L6aPEKvpbEH-26" style="edgeStyle=orthogonalEdgeStyle;rounded=0;orthogonalLoop=1;jettySize=auto;html=1;entryX=0.537;entryY=0.002;entryDx=0;entryDy=0;entryPerimeter=0;" parent="WIyWlLk6GJQsqaUBKTNV-1" source="SaPUFqvF2L6aPEKvpbEH-24" target="SaPUFqvF2L6aPEKvpbEH-16" edge="1">
          <mxGeometry relative="1" as="geometry" />
        </mxCell>
        <mxCell id="SaPUFqvF2L6aPEKvpbEH-27" value="1" style="edgeLabel;html=1;align=center;verticalAlign=middle;resizable=0;points=[];" parent="SaPUFqvF2L6aPEKvpbEH-26" vertex="1" connectable="0">
          <mxGeometry x="-0.6128" relative="1" as="geometry">
            <mxPoint x="65" y="12" as="offset" />
          </mxGeometry>
        </mxCell>
        <mxCell id="SaPUFqvF2L6aPEKvpbEH-28" value="1" style="edgeLabel;html=1;align=center;verticalAlign=middle;resizable=0;points=[];" parent="SaPUFqvF2L6aPEKvpbEH-26" vertex="1" connectable="0">
          <mxGeometry x="0.3912" y="-2" relative="1" as="geometry">
            <mxPoint x="16" y="90" as="offset" />
          </mxGeometry>
        </mxCell>
        <mxCell id="SaPUFqvF2L6aPEKvpbEH-24" value="&lt;&lt;Control&gt;&gt; &#xa;ClienteControl" style="swimlane;fontStyle=2;align=center;verticalAlign=top;childLayout=stackLayout;horizontal=1;startSize=45;horizontalStack=0;resizeParent=1;resizeLast=0;collapsible=1;marginBottom=0;rounded=0;shadow=0;strokeWidth=1;" parent="WIyWlLk6GJQsqaUBKTNV-1" vertex="1">
          <mxGeometry x="-775" y="253.5" width="160" height="89" as="geometry">
            <mxRectangle x="230" y="140" width="160" height="26" as="alternateBounds" />
          </mxGeometry>
        </mxCell>
        <mxCell id="SaPUFqvF2L6aPEKvpbEH-25" value="" style="line;html=1;strokeWidth=1;align=left;verticalAlign=middle;spacingTop=-1;spacingLeft=3;spacingRight=3;rotatable=0;labelPosition=right;points=[];portConstraint=eastwest;" parent="SaPUFqvF2L6aPEKvpbEH-24" vertex="1">
          <mxGeometry y="45" width="160" height="44" as="geometry" />
        </mxCell>
        <mxCell id="SaPUFqvF2L6aPEKvpbEH-41" style="edgeStyle=orthogonalEdgeStyle;rounded=0;orthogonalLoop=1;jettySize=auto;html=1;entryX=0.5;entryY=1;entryDx=0;entryDy=0;" parent="WIyWlLk6GJQsqaUBKTNV-1" target="SaPUFqvF2L6aPEKvpbEH-36" edge="1">
          <mxGeometry relative="1" as="geometry">
            <mxPoint x="540" y="208" as="sourcePoint" />
          </mxGeometry>
        </mxCell>
        <mxCell id="SaPUFqvF2L6aPEKvpbEH-42" value="1" style="edgeLabel;html=1;align=center;verticalAlign=middle;resizable=0;points=[];" parent="SaPUFqvF2L6aPEKvpbEH-41" vertex="1" connectable="0">
          <mxGeometry x="-0.71" y="1" relative="1" as="geometry">
            <mxPoint x="11" as="offset" />
          </mxGeometry>
        </mxCell>
        <mxCell id="SaPUFqvF2L6aPEKvpbEH-43" value="1" style="edgeLabel;html=1;align=center;verticalAlign=middle;resizable=0;points=[];" parent="SaPUFqvF2L6aPEKvpbEH-41" vertex="1" connectable="0">
          <mxGeometry x="0.3578" y="1" relative="1" as="geometry">
            <mxPoint x="11" as="offset" />
          </mxGeometry>
        </mxCell>
        <mxCell id="SaPUFqvF2L6aPEKvpbEH-29" value="&lt;&lt;Control&gt;&gt;&#xa;:PagamentoControl" style="swimlane;fontStyle=2;align=center;verticalAlign=top;childLayout=stackLayout;horizontal=1;startSize=42;horizontalStack=0;resizeParent=1;resizeLast=0;collapsible=1;marginBottom=0;rounded=0;shadow=0;strokeWidth=1;" parent="WIyWlLk6GJQsqaUBKTNV-1" vertex="1">
          <mxGeometry x="460" y="208" width="160" height="180" as="geometry">
            <mxRectangle x="230" y="140" width="160" height="26" as="alternateBounds" />
          </mxGeometry>
        </mxCell>
        <mxCell id="SaPUFqvF2L6aPEKvpbEH-35" value="" style="line;html=1;strokeWidth=1;align=left;verticalAlign=middle;spacingTop=-1;spacingLeft=3;spacingRight=3;rotatable=0;labelPosition=right;points=[];portConstraint=eastwest;" parent="SaPUFqvF2L6aPEKvpbEH-29" vertex="1">
          <mxGeometry y="42" width="160" height="10" as="geometry" />
        </mxCell>
        <mxCell id="SaPUFqvF2L6aPEKvpbEH-36" value="&lt;&lt;Boundary&gt;&gt;&#xa;:TelaPagamento" style="swimlane;fontStyle=2;align=center;verticalAlign=top;childLayout=stackLayout;horizontal=1;startSize=42;horizontalStack=0;resizeParent=1;resizeLast=0;collapsible=1;marginBottom=0;rounded=0;shadow=0;strokeWidth=1;" parent="WIyWlLk6GJQsqaUBKTNV-1" vertex="1">
          <mxGeometry x="460" y="42" width="160" height="110" as="geometry">
            <mxRectangle x="230" y="140" width="160" height="26" as="alternateBounds" />
          </mxGeometry>
        </mxCell>
        <mxCell id="SaPUFqvF2L6aPEKvpbEH-37" value="" style="line;html=1;strokeWidth=1;align=left;verticalAlign=middle;spacingTop=-1;spacingLeft=3;spacingRight=3;rotatable=0;labelPosition=right;points=[];portConstraint=eastwest;" parent="SaPUFqvF2L6aPEKvpbEH-36" vertex="1">
          <mxGeometry y="42" width="160" height="10" as="geometry" />
        </mxCell>
        <mxCell id="SaPUFqvF2L6aPEKvpbEH-38" style="edgeStyle=orthogonalEdgeStyle;rounded=0;orthogonalLoop=1;jettySize=auto;html=1;entryX=0;entryY=0.5;entryDx=0;entryDy=0;" parent="WIyWlLk6GJQsqaUBKTNV-1" source="r0VZcZ-JQpOF9B7DwPOQ-28" target="SaPUFqvF2L6aPEKvpbEH-29" edge="1">
          <mxGeometry relative="1" as="geometry" />
        </mxCell>
        <mxCell id="SaPUFqvF2L6aPEKvpbEH-39" value="1" style="edgeLabel;html=1;align=center;verticalAlign=middle;resizable=0;points=[];" parent="SaPUFqvF2L6aPEKvpbEH-38" vertex="1" connectable="0">
          <mxGeometry x="-0.8372" y="1" relative="1" as="geometry">
            <mxPoint y="-4" as="offset" />
          </mxGeometry>
        </mxCell>
        <mxCell id="SaPUFqvF2L6aPEKvpbEH-40" value="1" style="text;html=1;align=center;verticalAlign=middle;resizable=0;points=[];autosize=1;strokeColor=none;fillColor=none;" parent="WIyWlLk6GJQsqaUBKTNV-1" vertex="1">
          <mxGeometry x="425" y="278" width="30" height="30" as="geometry" />
        </mxCell>
        <mxCell id="gnOAgwDVRLhuEPHU9V2e-2" style="edgeStyle=orthogonalEdgeStyle;rounded=0;orthogonalLoop=1;jettySize=auto;html=1;entryX=0.5;entryY=1;entryDx=0;entryDy=0;" edge="1" parent="WIyWlLk6GJQsqaUBKTNV-1" source="gnOAgwDVRLhuEPHU9V2e-5" target="SaPUFqvF2L6aPEKvpbEH-16">
          <mxGeometry relative="1" as="geometry">
            <mxPoint x="-680" y="860" as="targetPoint" />
          </mxGeometry>
        </mxCell>
        <mxCell id="gnOAgwDVRLhuEPHU9V2e-3" value="1" style="edgeLabel;html=1;align=center;verticalAlign=middle;resizable=0;points=[];" vertex="1" connectable="0" parent="gnOAgwDVRLhuEPHU9V2e-2">
          <mxGeometry x="-0.6128" relative="1" as="geometry">
            <mxPoint x="77" y="-18" as="offset" />
          </mxGeometry>
        </mxCell>
        <mxCell id="gnOAgwDVRLhuEPHU9V2e-4" value="1" style="edgeLabel;html=1;align=center;verticalAlign=middle;resizable=0;points=[];" vertex="1" connectable="0" parent="gnOAgwDVRLhuEPHU9V2e-2">
          <mxGeometry x="0.3912" y="-2" relative="1" as="geometry">
            <mxPoint x="8" y="-116" as="offset" />
          </mxGeometry>
        </mxCell>
        <mxCell id="gnOAgwDVRLhuEPHU9V2e-5" value="&lt;&lt;Control&gt;&gt; &#xa;ProprietarioControl" style="swimlane;fontStyle=2;align=center;verticalAlign=top;childLayout=stackLayout;horizontal=1;startSize=45;horizontalStack=0;resizeParent=1;resizeLast=0;collapsible=1;marginBottom=0;rounded=0;shadow=0;strokeWidth=1;" vertex="1" parent="WIyWlLk6GJQsqaUBKTNV-1">
          <mxGeometry x="-760" y="913.5" width="160" height="89" as="geometry">
            <mxRectangle x="230" y="140" width="160" height="26" as="alternateBounds" />
          </mxGeometry>
        </mxCell>
        <mxCell id="gnOAgwDVRLhuEPHU9V2e-6" value="" style="line;html=1;strokeWidth=1;align=left;verticalAlign=middle;spacingTop=-1;spacingLeft=3;spacingRight=3;rotatable=0;labelPosition=right;points=[];portConstraint=eastwest;" vertex="1" parent="gnOAgwDVRLhuEPHU9V2e-5">
          <mxGeometry y="45" width="160" height="44" as="geometry" />
        </mxCell>
      </root>
    </mxGraphModel>
  </diagram>
</mxfile>
